<mxfile host="app.diagrams.net" agent="Mozilla/5.0 (Windows NT 10.0; Win64; x64) AppleWebKit/537.36 (KHTML, like Gecko) Chrome/130.0.0.0 Safari/537.36" version="24.8.6">
  <diagram name="Page-1" id="tIAHYtfakQ_iKV-NcSC9">
    <mxGraphModel dx="2625" dy="1413" grid="1" gridSize="10" guides="1" tooltips="1" connect="1" arrows="1" fold="1" page="1" pageScale="1" pageWidth="850" pageHeight="1100" math="0" shadow="0">
      <root>
        <mxCell id="0" />
        <mxCell id="1" parent="0" />
        <mxCell id="E5qtYvg-kJEmjBQ_-gRg-1" value="" style="edgeStyle=orthogonalEdgeStyle;rounded=0;orthogonalLoop=1;jettySize=auto;html=1;fontFamily=Times New Roman;strokeWidth=2;" edge="1" parent="1" source="E5qtYvg-kJEmjBQ_-gRg-2" target="E5qtYvg-kJEmjBQ_-gRg-3">
          <mxGeometry relative="1" as="geometry">
            <Array as="points">
              <mxPoint x="435" y="123" />
              <mxPoint x="435" y="123" />
            </Array>
          </mxGeometry>
        </mxCell>
        <mxCell id="E5qtYvg-kJEmjBQ_-gRg-2" value="&lt;p class=&quot;MsoListParagraph&quot; style=&quot;line-height: 150%;&quot;&gt;&lt;font style=&quot;font-size: 18px;&quot;&gt;&lt;span style=&quot;font-weight: bold;&quot;&gt;Need for and feasibility of&lt;br&gt;adopting a micro-irrigation system in the study area&lt;/span&gt;&lt;/font&gt;&lt;/p&gt;" style="rounded=0;whiteSpace=wrap;html=1;fillColor=#FFFFFF;strokeColor=#1A1A1A;fontFamily=Times New Roman;strokeWidth=2;" vertex="1" parent="1">
          <mxGeometry x="177.5" y="75" width="515" height="48" as="geometry" />
        </mxCell>
        <mxCell id="E5qtYvg-kJEmjBQ_-gRg-3" value="&lt;font style=&quot;font-size: 17px;&quot;&gt;&lt;b&gt;Evaluation of Current Irrigation Network&lt;/b&gt;&lt;/font&gt;" style="rounded=1;whiteSpace=wrap;html=1;fillColor=#FFFFFF;strokeColor=#1A1A1A;fontFamily=Times New Roman;fontSize=16;" vertex="1" parent="1">
          <mxGeometry x="250" y="163" width="370" height="50" as="geometry" />
        </mxCell>
        <mxCell id="E5qtYvg-kJEmjBQ_-gRg-51" style="edgeStyle=orthogonalEdgeStyle;rounded=0;orthogonalLoop=1;jettySize=auto;html=1;entryX=0.5;entryY=0;entryDx=0;entryDy=0;" edge="1" parent="1" source="E5qtYvg-kJEmjBQ_-gRg-4" target="E5qtYvg-kJEmjBQ_-gRg-26">
          <mxGeometry relative="1" as="geometry" />
        </mxCell>
        <mxCell id="E5qtYvg-kJEmjBQ_-gRg-4" value="&lt;span style=&quot;line-height: 115%;&quot;&gt;&lt;font style=&quot;font-size: 17px;&quot;&gt;&lt;b&gt;Water Use Performance Indicators&lt;/b&gt;&lt;/font&gt;&lt;/span&gt;" style="rounded=1;whiteSpace=wrap;html=1;fillColor=#FFFFFF;strokeColor=#1A1A1A;fontFamily=Times New Roman;fontSize=16;strokeWidth=2;" vertex="1" parent="1">
          <mxGeometry x="215" y="403" width="210" height="60" as="geometry" />
        </mxCell>
        <mxCell id="E5qtYvg-kJEmjBQ_-gRg-26" value="&lt;font style=&quot;font-size: 17px;&quot;&gt;&lt;b&gt;Feasibility Assessment of Micro Irrigation&amp;nbsp;&lt;/b&gt;&lt;/font&gt;" style="rounded=1;whiteSpace=wrap;html=1;fillColor=#FFFFFF;fontColor=#1A1A1A;strokeColor=#314354;fontFamily=Times New Roman;fontSize=16;strokeWidth=2;" vertex="1" parent="1">
          <mxGeometry x="249" y="598" width="390" height="50" as="geometry" />
        </mxCell>
        <mxCell id="E5qtYvg-kJEmjBQ_-gRg-52" style="edgeStyle=orthogonalEdgeStyle;rounded=0;orthogonalLoop=1;jettySize=auto;html=1;entryX=0.5;entryY=0;entryDx=0;entryDy=0;" edge="1" parent="1" source="E5qtYvg-kJEmjBQ_-gRg-27" target="E5qtYvg-kJEmjBQ_-gRg-26">
          <mxGeometry relative="1" as="geometry" />
        </mxCell>
        <mxCell id="E5qtYvg-kJEmjBQ_-gRg-27" value="&lt;b style=&quot;color: rgb(26, 26, 26); font-size: 17px;&quot;&gt;Social Survey&lt;/b&gt;" style="rounded=1;whiteSpace=wrap;html=1;fillColor=#FFFFFF;strokeColor=#1A1A1A;fontFamily=Times New Roman;fontSize=16;strokeWidth=2;" vertex="1" parent="1">
          <mxGeometry x="470" y="403" width="190" height="60" as="geometry" />
        </mxCell>
        <mxCell id="E5qtYvg-kJEmjBQ_-gRg-32" style="edgeStyle=orthogonalEdgeStyle;rounded=0;orthogonalLoop=1;jettySize=auto;html=1;entryX=0;entryY=0.5;entryDx=0;entryDy=0;" edge="1" parent="1" source="E5qtYvg-kJEmjBQ_-gRg-28" target="E5qtYvg-kJEmjBQ_-gRg-4">
          <mxGeometry relative="1" as="geometry">
            <mxPoint x="210" y="453" as="targetPoint" />
            <Array as="points">
              <mxPoint x="180" y="554" />
              <mxPoint x="180" y="433" />
            </Array>
          </mxGeometry>
        </mxCell>
        <mxCell id="E5qtYvg-kJEmjBQ_-gRg-28" value="&lt;span style=&quot;line-height: 107%;&quot;&gt;&lt;font style=&quot;font-size: 14px;&quot;&gt;&lt;b style=&quot;&quot;&gt;RWS &amp;amp; RIS&lt;/b&gt;&lt;/font&gt;&lt;/span&gt;" style="rounded=1;whiteSpace=wrap;html=1;fillColor=#FFFFFF;strokeColor=#1A1A1A;fontFamily=Times New Roman;fontSize=16;" vertex="1" parent="1">
          <mxGeometry x="60" y="534.5" width="100" height="38.5" as="geometry" />
        </mxCell>
        <mxCell id="E5qtYvg-kJEmjBQ_-gRg-11" value="" style="edgeStyle=orthogonalEdgeStyle;rounded=0;orthogonalLoop=1;jettySize=auto;html=1;fontFamily=Times New Roman;entryX=0.5;entryY=0;entryDx=0;entryDy=0;fontSize=16;strokeWidth=2;" edge="1" parent="1" source="E5qtYvg-kJEmjBQ_-gRg-3" target="E5qtYvg-kJEmjBQ_-gRg-16">
          <mxGeometry relative="1" as="geometry">
            <mxPoint x="435" y="243" as="targetPoint" />
          </mxGeometry>
        </mxCell>
        <mxCell id="E5qtYvg-kJEmjBQ_-gRg-29" style="edgeStyle=orthogonalEdgeStyle;rounded=0;orthogonalLoop=1;jettySize=auto;html=1;entryX=0;entryY=0.5;entryDx=0;entryDy=0;" edge="1" parent="1" source="E5qtYvg-kJEmjBQ_-gRg-23" target="E5qtYvg-kJEmjBQ_-gRg-4">
          <mxGeometry relative="1" as="geometry">
            <Array as="points">
              <mxPoint x="180" y="391" />
              <mxPoint x="180" y="433" />
            </Array>
          </mxGeometry>
        </mxCell>
        <mxCell id="E5qtYvg-kJEmjBQ_-gRg-33" style="edgeStyle=orthogonalEdgeStyle;rounded=0;orthogonalLoop=1;jettySize=auto;html=1;entryX=0;entryY=0.5;entryDx=0;entryDy=0;" edge="1" parent="1" source="E5qtYvg-kJEmjBQ_-gRg-24" target="E5qtYvg-kJEmjBQ_-gRg-4">
          <mxGeometry relative="1" as="geometry">
            <Array as="points">
              <mxPoint x="180" y="451" />
              <mxPoint x="180" y="433" />
            </Array>
          </mxGeometry>
        </mxCell>
        <mxCell id="E5qtYvg-kJEmjBQ_-gRg-31" style="edgeStyle=orthogonalEdgeStyle;rounded=0;orthogonalLoop=1;jettySize=auto;html=1;entryX=0;entryY=0.5;entryDx=0;entryDy=0;" edge="1" parent="1" source="E5qtYvg-kJEmjBQ_-gRg-25" target="E5qtYvg-kJEmjBQ_-gRg-4">
          <mxGeometry relative="1" as="geometry">
            <mxPoint x="210" y="443" as="targetPoint" />
            <Array as="points">
              <mxPoint x="180" y="500" />
              <mxPoint x="180" y="433" />
            </Array>
          </mxGeometry>
        </mxCell>
        <mxCell id="E5qtYvg-kJEmjBQ_-gRg-39" style="edgeStyle=orthogonalEdgeStyle;rounded=0;orthogonalLoop=1;jettySize=auto;html=1;entryX=1;entryY=0.5;entryDx=0;entryDy=0;" edge="1" parent="1" source="E5qtYvg-kJEmjBQ_-gRg-34" target="E5qtYvg-kJEmjBQ_-gRg-27">
          <mxGeometry relative="1" as="geometry" />
        </mxCell>
        <mxCell id="E5qtYvg-kJEmjBQ_-gRg-34" value="&lt;span style=&quot;line-height: 107%;&quot;&gt;&lt;font style=&quot;font-size: 14px;&quot;&gt;&lt;b style=&quot;&quot;&gt;Age Group&lt;/b&gt;&lt;/font&gt;&lt;/span&gt;" style="rounded=1;whiteSpace=wrap;html=1;fillColor=#FFFFFF;strokeColor=#1A1A1A;fontFamily=Times New Roman;fontSize=16;" vertex="1" parent="1">
          <mxGeometry x="700" y="362.75" width="95" height="35" as="geometry" />
        </mxCell>
        <mxCell id="E5qtYvg-kJEmjBQ_-gRg-46" style="edgeStyle=orthogonalEdgeStyle;rounded=0;orthogonalLoop=1;jettySize=auto;html=1;entryX=1;entryY=0.5;entryDx=0;entryDy=0;" edge="1" parent="1" source="E5qtYvg-kJEmjBQ_-gRg-38" target="E5qtYvg-kJEmjBQ_-gRg-27">
          <mxGeometry relative="1" as="geometry">
            <mxPoint x="660" y="433" as="targetPoint" />
            <Array as="points">
              <mxPoint x="680" y="580" />
              <mxPoint x="680" y="433" />
            </Array>
          </mxGeometry>
        </mxCell>
        <mxCell id="E5qtYvg-kJEmjBQ_-gRg-38" value="&lt;span style=&quot;line-height: 107%;&quot;&gt;&lt;font style=&quot;font-size: 14px;&quot;&gt;&lt;b style=&quot;&quot;&gt;Land Holding&lt;/b&gt;&lt;/font&gt;&lt;/span&gt;" style="rounded=1;whiteSpace=wrap;html=1;fillColor=#FFFFFF;strokeColor=#1A1A1A;fontFamily=Times New Roman;fontSize=16;" vertex="1" parent="1">
          <mxGeometry x="700" y="557" width="95" height="35" as="geometry" />
        </mxCell>
        <mxCell id="E5qtYvg-kJEmjBQ_-gRg-48" style="edgeStyle=orthogonalEdgeStyle;rounded=0;orthogonalLoop=1;jettySize=auto;html=1;" edge="1" parent="1" source="E5qtYvg-kJEmjBQ_-gRg-42">
          <mxGeometry relative="1" as="geometry">
            <mxPoint x="660" y="433" as="targetPoint" />
            <Array as="points">
              <mxPoint x="680" y="626" />
              <mxPoint x="680" y="433" />
            </Array>
          </mxGeometry>
        </mxCell>
        <mxCell id="E5qtYvg-kJEmjBQ_-gRg-42" value="&lt;span style=&quot;line-height: 107%;&quot;&gt;&lt;font style=&quot;font-size: 14px;&quot;&gt;&lt;b style=&quot;&quot;&gt;Irrigation Source&lt;/b&gt;&lt;/font&gt;&lt;/span&gt;" style="rounded=1;whiteSpace=wrap;html=1;fillColor=#FFFFFF;strokeColor=#1A1A1A;fontFamily=Times New Roman;fontSize=16;" vertex="1" parent="1">
          <mxGeometry x="700" y="602" width="95" height="45" as="geometry" />
        </mxCell>
        <mxCell id="E5qtYvg-kJEmjBQ_-gRg-43" style="edgeStyle=orthogonalEdgeStyle;rounded=0;orthogonalLoop=1;jettySize=auto;html=1;entryX=1;entryY=0.5;entryDx=0;entryDy=0;" edge="1" parent="1" source="E5qtYvg-kJEmjBQ_-gRg-36" target="E5qtYvg-kJEmjBQ_-gRg-27">
          <mxGeometry relative="1" as="geometry" />
        </mxCell>
        <mxCell id="E5qtYvg-kJEmjBQ_-gRg-44" style="edgeStyle=orthogonalEdgeStyle;rounded=0;orthogonalLoop=1;jettySize=auto;html=1;entryX=1;entryY=0.5;entryDx=0;entryDy=0;" edge="1" parent="1" source="E5qtYvg-kJEmjBQ_-gRg-35" target="E5qtYvg-kJEmjBQ_-gRg-27">
          <mxGeometry relative="1" as="geometry" />
        </mxCell>
        <mxCell id="E5qtYvg-kJEmjBQ_-gRg-45" style="edgeStyle=orthogonalEdgeStyle;rounded=0;orthogonalLoop=1;jettySize=auto;html=1;entryX=1;entryY=0.5;entryDx=0;entryDy=0;" edge="1" parent="1" source="E5qtYvg-kJEmjBQ_-gRg-37" target="E5qtYvg-kJEmjBQ_-gRg-27">
          <mxGeometry relative="1" as="geometry" />
        </mxCell>
        <mxCell id="E5qtYvg-kJEmjBQ_-gRg-47" style="edgeStyle=orthogonalEdgeStyle;rounded=0;orthogonalLoop=1;jettySize=auto;html=1;entryX=1;entryY=0.5;entryDx=0;entryDy=0;" edge="1" parent="1" source="E5qtYvg-kJEmjBQ_-gRg-38" target="E5qtYvg-kJEmjBQ_-gRg-27">
          <mxGeometry relative="1" as="geometry">
            <mxPoint x="660" y="433" as="targetPoint" />
            <mxPoint x="710" y="580" as="sourcePoint" />
            <Array as="points">
              <mxPoint x="680" y="581" />
              <mxPoint x="680" y="433" />
            </Array>
          </mxGeometry>
        </mxCell>
        <mxCell id="E5qtYvg-kJEmjBQ_-gRg-49" style="edgeStyle=orthogonalEdgeStyle;rounded=0;orthogonalLoop=1;jettySize=auto;html=1;entryX=0.5;entryY=0;entryDx=0;entryDy=0;" edge="1" parent="1" source="E5qtYvg-kJEmjBQ_-gRg-10" target="E5qtYvg-kJEmjBQ_-gRg-4">
          <mxGeometry relative="1" as="geometry">
            <Array as="points">
              <mxPoint x="440" y="370" />
              <mxPoint x="320" y="370" />
            </Array>
          </mxGeometry>
        </mxCell>
        <mxCell id="E5qtYvg-kJEmjBQ_-gRg-50" style="edgeStyle=orthogonalEdgeStyle;rounded=0;orthogonalLoop=1;jettySize=auto;html=1;entryX=0.5;entryY=0;entryDx=0;entryDy=0;" edge="1" parent="1" source="E5qtYvg-kJEmjBQ_-gRg-10" target="E5qtYvg-kJEmjBQ_-gRg-27">
          <mxGeometry relative="1" as="geometry">
            <Array as="points">
              <mxPoint x="440" y="370" />
              <mxPoint x="565" y="370" />
            </Array>
          </mxGeometry>
        </mxCell>
        <mxCell id="E5qtYvg-kJEmjBQ_-gRg-10" value="" style="rounded=1;whiteSpace=wrap;html=1;fillColor=none;strokeWidth=2;fontFamily=Times New Roman;fontSize=16;dashed=1;" vertex="1" parent="1">
          <mxGeometry x="95" y="247.25" width="660" height="90" as="geometry" />
        </mxCell>
        <mxCell id="E5qtYvg-kJEmjBQ_-gRg-12" value="" style="edgeStyle=orthogonalEdgeStyle;rounded=0;orthogonalLoop=1;jettySize=auto;html=1;fontFamily=Times New Roman;entryX=0.5;entryY=0;entryDx=0;entryDy=0;fontSize=16;strokeWidth=2;" edge="1" parent="1" target="E5qtYvg-kJEmjBQ_-gRg-19">
          <mxGeometry relative="1" as="geometry">
            <mxPoint x="680" y="266.5" as="targetPoint" />
            <mxPoint x="430" y="238" as="sourcePoint" />
          </mxGeometry>
        </mxCell>
        <mxCell id="E5qtYvg-kJEmjBQ_-gRg-13" value="" style="endArrow=none;html=1;rounded=0;exitX=0.5;exitY=0;exitDx=0;exitDy=0;fontFamily=Times New Roman;fontSize=16;strokeWidth=2;" edge="1" parent="1" source="E5qtYvg-kJEmjBQ_-gRg-18">
          <mxGeometry width="50" height="50" relative="1" as="geometry">
            <mxPoint x="500" y="256.5" as="sourcePoint" />
            <mxPoint x="500" y="238" as="targetPoint" />
          </mxGeometry>
        </mxCell>
        <mxCell id="E5qtYvg-kJEmjBQ_-gRg-14" value="" style="endArrow=none;html=1;rounded=0;fontFamily=Times New Roman;fontSize=16;strokeWidth=2;" edge="1" parent="1">
          <mxGeometry width="50" height="50" relative="1" as="geometry">
            <mxPoint x="325" y="263" as="sourcePoint" />
            <mxPoint x="325" y="238" as="targetPoint" />
          </mxGeometry>
        </mxCell>
        <mxCell id="E5qtYvg-kJEmjBQ_-gRg-15" value="" style="group" vertex="1" connectable="0" parent="1">
          <mxGeometry x="110" y="261.5" width="630" height="61.5" as="geometry" />
        </mxCell>
        <mxCell id="E5qtYvg-kJEmjBQ_-gRg-16" value="&lt;font style=&quot;font-size: 17px;&quot;&gt;&lt;b&gt;Canal Survey&lt;/b&gt;&lt;/font&gt;" style="rounded=1;whiteSpace=wrap;html=1;fillColor=#FFFFFF;strokeColor=#1A1A1A;fontFamily=Times New Roman;fontSize=16;" vertex="1" parent="E5qtYvg-kJEmjBQ_-gRg-15">
          <mxGeometry y="1.5" width="140" height="60" as="geometry" />
        </mxCell>
        <mxCell id="E5qtYvg-kJEmjBQ_-gRg-17" value="&lt;font style=&quot;font-size: 17px;&quot;&gt;&lt;b&gt;Conveyance Efficiency&lt;/b&gt;&lt;/font&gt;" style="rounded=1;whiteSpace=wrap;html=1;fillColor=#FFFFFF;strokeColor=#1A1A1A;fontFamily=Times New Roman;fontSize=16;" vertex="1" parent="E5qtYvg-kJEmjBQ_-gRg-15">
          <mxGeometry x="150" y="1.5" width="130" height="60" as="geometry" />
        </mxCell>
        <mxCell id="E5qtYvg-kJEmjBQ_-gRg-18" value="&lt;span style=&quot;line-height: 115%;&quot;&gt;&lt;font style=&quot;font-size: 17px;&quot;&gt;&lt;b&gt;Maintenance and management condition&lt;/b&gt;&lt;/font&gt;&lt;/span&gt;" style="rounded=1;whiteSpace=wrap;html=1;fillColor=#FFFFFF;strokeColor=#1A1A1A;fontFamily=Times New Roman;fontSize=16;" vertex="1" parent="E5qtYvg-kJEmjBQ_-gRg-15">
          <mxGeometry x="290" width="200" height="61.5" as="geometry" />
        </mxCell>
        <mxCell id="E5qtYvg-kJEmjBQ_-gRg-19" value="&lt;font style=&quot;font-size: 17px;&quot;&gt;&lt;b&gt;Irrigation Requirement&lt;/b&gt;&lt;/font&gt;" style="rounded=1;whiteSpace=wrap;html=1;fillColor=#FFFFFF;strokeColor=#1A1A1A;fontFamily=Times New Roman;fontSize=16;" vertex="1" parent="E5qtYvg-kJEmjBQ_-gRg-15">
          <mxGeometry x="510" y="1.5" width="120" height="60" as="geometry" />
        </mxCell>
        <mxCell id="E5qtYvg-kJEmjBQ_-gRg-23" value="&lt;span style=&quot;line-height: 107%;&quot;&gt;&lt;font style=&quot;font-size: 14px;&quot;&gt;&lt;b style=&quot;&quot;&gt;WDCI&lt;/b&gt;&lt;/font&gt;&lt;/span&gt;" style="rounded=1;whiteSpace=wrap;html=1;fillColor=#FFFFFF;strokeColor=#1A1A1A;fontFamily=Times New Roman;fontSize=16;" vertex="1" parent="1">
          <mxGeometry x="60" y="373" width="95" height="35" as="geometry" />
        </mxCell>
        <mxCell id="E5qtYvg-kJEmjBQ_-gRg-24" value="&lt;span style=&quot;line-height: 107%;&quot;&gt;&lt;font face=&quot;Times New Roman&quot; style=&quot;font-size: 14px;&quot;&gt;&lt;b style=&quot;&quot;&gt;AVIWD&lt;/b&gt;&lt;/font&gt;&lt;/span&gt;" style="rounded=1;whiteSpace=wrap;html=1;fillColor=#FFFFFF;strokeColor=#1A1A1A;fontFamily=Times New Roman;fontSize=16;" vertex="1" parent="1">
          <mxGeometry x="60" y="433" width="95" height="35" as="geometry" />
        </mxCell>
        <mxCell id="E5qtYvg-kJEmjBQ_-gRg-25" value="&lt;span style=&quot;line-height: 107%;&quot;&gt;&lt;font style=&quot;font-size: 14px;&quot;&gt;&lt;b style=&quot;&quot;&gt;AIWS/CA&lt;/b&gt;&lt;/font&gt;&lt;/span&gt;" style="rounded=1;whiteSpace=wrap;html=1;fillColor=#FFFFFF;strokeColor=#1A1A1A;fontFamily=Times New Roman;fontSize=16;" vertex="1" parent="1">
          <mxGeometry x="64.38" y="483" width="90.62" height="35" as="geometry" />
        </mxCell>
        <mxCell id="E5qtYvg-kJEmjBQ_-gRg-37" value="&lt;span style=&quot;line-height: 107%;&quot;&gt;&lt;font style=&quot;font-size: 14px;&quot;&gt;&lt;b style=&quot;&quot;&gt;Cropping Pattern&lt;/b&gt;&lt;/font&gt;&lt;/span&gt;" style="rounded=1;whiteSpace=wrap;html=1;fillColor=#FFFFFF;strokeColor=#1A1A1A;fontFamily=Times New Roman;fontSize=16;" vertex="1" parent="1">
          <mxGeometry x="700" y="502" width="95" height="45" as="geometry" />
        </mxCell>
        <mxCell id="E5qtYvg-kJEmjBQ_-gRg-36" value="&lt;span style=&quot;line-height: 107%;&quot;&gt;&lt;font style=&quot;font-size: 14px;&quot;&gt;&lt;b style=&quot;&quot;&gt;Occupation&lt;/b&gt;&lt;/font&gt;&lt;/span&gt;" style="rounded=1;whiteSpace=wrap;html=1;fillColor=#FFFFFF;strokeColor=#1A1A1A;fontFamily=Times New Roman;fontSize=16;" vertex="1" parent="1">
          <mxGeometry x="700" y="456" width="95" height="35" as="geometry" />
        </mxCell>
        <mxCell id="E5qtYvg-kJEmjBQ_-gRg-35" value="&lt;span style=&quot;line-height: 107%;&quot;&gt;&lt;font style=&quot;font-size: 14px;&quot;&gt;&lt;b style=&quot;&quot;&gt;Education&lt;/b&gt;&lt;/font&gt;&lt;/span&gt;" style="rounded=1;whiteSpace=wrap;html=1;fillColor=#FFFFFF;strokeColor=#1A1A1A;fontFamily=Times New Roman;fontSize=16;" vertex="1" parent="1">
          <mxGeometry x="700" y="411" width="95" height="35" as="geometry" />
        </mxCell>
      </root>
    </mxGraphModel>
  </diagram>
</mxfile>
